<svg width="18" height="18" viewBox="0 0 18 18" fill="none" xmlns="http://www.w3.org/2000/svg">
<path fill-rule="evenodd" clip-rule="evenodd" d="M11.3683 12.429C10.1699 13.395 8.64584 13.9734 6.98669 13.9734C3.12805 13.9734 0 10.8453 0 6.98669C0 3.12805 3.12805 0 6.98669 0C10.8453 0 13.9734 3.12805 13.9734 6.98669C13.9734 8.64584 13.395 10.1699 12.429 11.3683L17.5303 16.4697C17.8232 16.7625 17.8232 17.2374 17.5303 17.5303C17.2374 17.8232 16.7625 17.8232 16.4697 17.5303L11.3683 12.429ZM12.4734 6.98669C12.4734 10.0169 10.0169 12.4734 6.98669 12.4734C3.95647 12.4734 1.5 10.0169 1.5 6.98669C1.5 3.95647 3.95647 1.5 6.98669 1.5C10.0169 1.5 12.4734 3.95647 12.4734 6.98669Z" fill="white"/>
</svg>
